<svg width="864" height="62" viewBox="0 0 864 62" fill="none" xmlns="http://www.w3.org/2000/svg">
<path d="M221.267 2.36042C223.467 1.62042 227.517 0.730426 230.267 0.370426C233.017 0.0104258 237.297 -0.109584 239.767 0.110416C242.247 0.320416 246.297 1.12046 248.767 1.90046C251.247 2.67045 254.847 4.59041 256.767 6.17041C258.697 7.74041 261.597 11.4604 263.217 14.4304C265.577 18.7704 266.247 21.3804 266.607 27.8204C266.937 33.7804 266.577 37.3504 265.207 41.8204C263.797 46.3904 262.157 49.0204 258.317 52.8804C254.677 56.5204 251.867 58.3404 248.267 59.3804C245.477 60.1804 239.287 60.8004 234.267 60.7705C227.437 60.7405 224.187 60.2404 220.767 58.6904C218.297 57.5704 214.747 55.1204 212.887 53.2404C211.027 51.3604 208.577 48.0204 207.447 45.8204C205.937 42.8904 205.267 39.2904 204.937 32.3204C204.527 23.4904 204.707 22.3704 207.387 16.4304C208.967 12.9104 211.847 8.61042 213.767 6.86042C215.697 5.12042 219.067 3.09042 221.267 2.36042Z" fill="white"/>
<path d="M315.957 5.32044C315.787 3.94044 315.797 2.35045 315.987 1.77045C316.207 1.06045 324.767 0.810421 342.287 0.990421C356.577 1.15042 368.607 1.28042 369.017 1.30042C369.427 1.31042 369.767 2.67044 369.767 4.32044C369.767 5.97044 369.207 7.49044 368.517 7.70044C367.827 7.92044 362.657 7.92044 346.767 7.32044V60.3204H338.767V7.32044L316.267 7.82044L315.957 5.32044Z" fill="white"/>
<path d="M608.077 3.58045C609.617 2.72045 612.087 1.65044 613.577 1.20044C615.057 0.750443 621.217 0.530443 627.267 0.700443C634.897 0.920443 639.887 1.60041 643.547 2.92041C646.447 3.96041 648.807 5.38044 648.797 6.07044C648.777 6.76044 648.257 8.33044 647.627 9.57044L646.377 12.0704C646.317 12.2104 644.017 11.3604 641.267 10.1804C638.207 8.87042 633.157 7.83043 628.267 7.50043C622.337 7.11043 619.107 7.39045 615.767 8.58045C613.297 9.47045 609.807 11.8004 608.017 13.7604C606.227 15.7204 604.317 19.0104 603.777 21.0704C603.227 23.1304 602.767 27.5204 602.757 30.8204C602.747 34.1204 603.257 38.3904 603.907 40.3204C604.547 42.2404 606.017 45.1404 607.167 46.7604C608.327 48.3804 611.297 50.5904 613.767 51.6804C617.017 53.1104 620.347 53.6404 625.767 53.5904C629.897 53.5504 635.067 52.9104 641.267 50.8204L641.767 30.3204L649.267 30.8204V55.6204L643.267 57.8804C639.967 59.1304 633.897 60.4604 629.767 60.8404C625.357 61.2504 619.797 61.0804 616.267 60.4204C612.807 59.7804 608.577 58.1404 606.267 56.5404C604.067 55.0104 600.897 51.7504 599.207 49.2904C597.227 46.3804 595.697 42.3804 594.837 37.8204C594.037 33.6304 593.787 28.8204 594.207 25.8204C594.587 23.0704 595.797 18.7904 596.887 16.3204C597.977 13.8404 600.307 10.3204 602.067 8.48041C603.827 6.65041 606.527 4.44045 608.077 3.58045Z" fill="white"/>
<path d="M809.597 4.49042C809.507 2.93042 809.697 1.47042 810.027 1.24042C810.357 1.01042 822.467 0.820438 863.267 0.820438V7.82044L840.767 7.32044V60.3204H832.767V7.32044H809.767L809.597 4.49042Z" fill="white"/>
<path d="M1.45725 9.3404C2.44725 7.4304 4.80725 4.8404 6.69725 3.5904C9.94725 1.4404 11.0773 1.32044 46.7673 1.32044V7.32044L12.5873 7.82044L10.1773 10.5704C8.77725 12.1704 7.76725 14.5804 7.76725 16.3204C7.76725 17.9704 8.44725 20.6704 9.26725 22.3204C10.2373 24.2504 11.7473 25.5004 13.5173 25.8204C15.0273 26.1004 21.2173 26.5604 27.2673 26.8404C34.7873 27.2004 39.3673 27.9104 41.7573 29.0904C43.6673 30.0404 46.2673 32.3904 47.5273 34.3204C49.2773 36.9904 49.8273 39.2504 49.8273 43.8204C49.8273 48.4004 49.2773 50.6504 47.5273 53.3204C46.2573 55.2404 43.6573 57.6104 41.7473 58.5704C38.8073 60.0504 35.3773 60.3204 0.767254 60.3204V53.3204H18.7673C35.9873 53.3204 36.8773 53.2204 39.3973 51.0704C41.5173 49.2704 42.0573 47.8804 42.1473 44.1004C42.2373 40.4204 41.7673 38.8704 39.9873 37.1004C37.9173 35.0304 36.5073 34.7705 24.4873 34.2705C13.9273 33.8204 10.5873 33.3204 7.86725 31.7705C6.00725 30.7005 3.61725 28.6904 2.57725 27.3204C1.40725 25.7804 0.477254 22.5104 0.157254 18.8204C-0.232746 14.2204 0.0672539 12.0104 1.45725 9.3404Z" fill="white"/>
<path d="M103.767 7.32044L103.827 4.26044L103.887 1.21045L124.077 1.51044C143.117 1.80044 144.447 1.95044 147.517 4.07044C149.307 5.31044 151.547 7.78044 152.497 9.57044C153.657 11.7504 154.237 15.1404 154.247 19.8904C154.267 25.8204 153.857 27.6004 151.697 30.8904C150.287 33.0504 147.357 35.7104 145.197 36.8104C141.937 38.4504 138.787 38.8504 112.267 39.4904L112.767 60.3204H103.767V32.3204L139.937 31.8204L142.847 28.5704C144.457 26.7804 146.017 23.8604 146.327 22.0704C146.637 20.2804 146.297 17.0204 145.577 14.8204C144.617 11.8904 143.327 10.3504 140.767 9.07044C137.857 7.62044 134.457 7.32044 103.767 7.32044Z" fill="white"/>
<path d="M421.767 60.3104V30.8104V1.31043H429.767V53.3104H471.767V60.3104H421.767Z" fill="white"/>
<path d="M528.767 60.3104V30.8104V1.31043H536.767V60.3104H528.767Z" fill="white"/>
<path d="M704.767 60.3104V30.8104V1.31043H712.767V26.3104L730.517 26.6204C740.277 26.7804 748.607 26.7804 749.017 26.6204C749.427 26.4504 749.767 20.6904 749.767 1.31043H757.767V60.3104H749.767V34.3104H712.767V60.3104H704.767Z" fill="white"/>
</svg>
